# MagicaVoxel @ Ephtracy

# group
g hate

# material
mtllib hate.mtl
usemtl palette

# normals
vn -1 0 0
vn 1 0 0
vn 0 0 1
vn 0 0 -1
vn 0 -1 0
vn 0 1 0

# texcoords
vt 0.287109 0.5
vt 0.349609 0.5
vt 0.412109 0.5
vt 0.958984 0.5
vt 0.994141 0.5

# verts
v -50 49 22
v -50 49 19
v -50 49 18
v -50 49 15
v -50 49 14
v -50 49 11
v -50 49 10
v -50 49 7
v -50 49 4
v -50 49 1
v -50 49 -2
v -50 49 -8
v -50 50 31
v -50 50 26
v -50 50 21
v -50 50 20
v -50 50 17
v -50 50 16
v -50 50 13
v -50 50 12
v -50 50 9
v -50 50 8
v -50 50 3
v -50 50 2
v -50 50 -3
v -50 50 -7
v -50 51 32
v -50 51 31
v -50 51 26
v -50 51 25
v -50 51 -4
v -50 51 -7
v -50 52 33
v -50 52 32
v -50 52 25
v -50 52 24
v -50 52 -5
v -50 52 -8
v -50 53 31
v -50 53 30
v -50 53 27
v -50 53 26
v -50 53 19
v -50 53 18
v -50 53 11
v -50 53 10
v -50 53 -5
v -50 53 -7
v -50 54 33
v -50 54 31
v -50 54 30
v -50 54 29
v -50 54 28
v -50 54 27
v -50 54 26
v -50 54 24
v -50 54 20
v -50 54 17
v -50 54 12
v -50 54 9
v -50 54 -4
v -50 54 -6
v -50 55 32
v -50 55 31
v -50 55 30
v -50 55 29
v -50 55 28
v -50 55 27
v -50 55 26
v -50 55 25
v -50 55 20
v -50 55 17
v -50 55 12
v -50 55 9
v -50 55 -4
v -50 55 -6
v -50 56 33
v -50 56 32
v -50 56 30
v -50 56 27
v -50 56 25
v -50 56 24
v -50 56 19
v -50 56 18
v -50 56 11
v -50 56 10
v -50 56 -5
v -50 56 -7
v -50 57 33
v -50 57 32
v -50 57 25
v -50 57 24
v -50 57 11
v -50 57 10
v -50 57 6
v -50 57 4
v -50 57 1
v -50 57 -1
v -50 57 -5
v -50 57 -8
v -50 58 32
v -50 58 31
v -50 58 26
v -50 58 25
v -50 58 12
v -50 58 9
v -50 58 5
v -50 58 3
v -50 58 2
v -50 58 -0
v -50 58 -4
v -50 58 -7
v -50 59 31
v -50 59 26
v -50 59 21
v -50 59 20
v -50 59 17
v -50 59 16
v -50 59 13
v -50 59 8
v -50 59 5
v -50 59 -0
v -50 59 -3
v -50 59 -7
v -50 60 22
v -50 60 19
v -50 60 18
v -50 60 15
v -50 60 14
v -50 60 7
v -50 60 6
v -50 60 -1
v -50 60 -2
v -50 60 -8
v -49 49 22
v -49 49 19
v -49 49 18
v -49 49 15
v -49 49 14
v -49 49 11
v -49 49 10
v -49 49 7
v -49 49 4
v -49 49 1
v -49 49 -2
v -49 49 -8
v -49 50 31
v -49 50 26
v -49 50 21
v -49 50 20
v -49 50 17
v -49 50 16
v -49 50 13
v -49 50 12
v -49 50 9
v -49 50 8
v -49 50 3
v -49 50 2
v -49 50 -3
v -49 50 -7
v -49 51 32
v -49 51 31
v -49 51 26
v -49 51 25
v -49 51 -4
v -49 51 -7
v -49 52 33
v -49 52 32
v -49 52 25
v -49 52 24
v -49 52 -5
v -49 52 -8
v -49 53 31
v -49 53 30
v -49 53 27
v -49 53 26
v -49 53 19
v -49 53 18
v -49 53 11
v -49 53 10
v -49 53 -5
v -49 53 -7
v -49 54 33
v -49 54 31
v -49 54 30
v -49 54 29
v -49 54 28
v -49 54 27
v -49 54 26
v -49 54 24
v -49 54 20
v -49 54 17
v -49 54 12
v -49 54 9
v -49 54 -4
v -49 54 -6
v -49 55 32
v -49 55 31
v -49 55 30
v -49 55 29
v -49 55 28
v -49 55 27
v -49 55 26
v -49 55 25
v -49 55 20
v -49 55 17
v -49 55 12
v -49 55 9
v -49 55 -4
v -49 55 -6
v -49 56 33
v -49 56 32
v -49 56 30
v -49 56 27
v -49 56 25
v -49 56 24
v -49 56 19
v -49 56 18
v -49 56 11
v -49 56 10
v -49 56 -5
v -49 56 -7
v -49 57 33
v -49 57 32
v -49 57 25
v -49 57 24
v -49 57 11
v -49 57 10
v -49 57 6
v -49 57 4
v -49 57 1
v -49 57 -1
v -49 57 -5
v -49 57 -8
v -49 58 32
v -49 58 31
v -49 58 26
v -49 58 25
v -49 58 12
v -49 58 9
v -49 58 5
v -49 58 3
v -49 58 2
v -49 58 -0
v -49 58 -4
v -49 58 -7
v -49 59 31
v -49 59 26
v -49 59 21
v -49 59 20
v -49 59 17
v -49 59 16
v -49 59 13
v -49 59 8
v -49 59 5
v -49 59 -0
v -49 59 -3
v -49 59 -7
v -49 60 22
v -49 60 19
v -49 60 18
v -49 60 15
v -49 60 14
v -49 60 7
v -49 60 6
v -49 60 -1
v -49 60 -2
v -49 60 -8
v -50 52 33
v -50 54 33
v -50 56 33
v -50 57 33
v -49 52 33
v -49 54 33
v -49 56 33
v -49 57 33
v -50 51 32
v -50 52 32
v -50 57 32
v -50 58 32
v -49 51 32
v -49 52 32
v -49 57 32
v -49 58 32
v -50 50 31
v -50 51 31
v -50 58 31
v -50 59 31
v -49 50 31
v -49 51 31
v -49 58 31
v -49 59 31
v -50 49 22
v -50 60 22
v -49 49 22
v -49 60 22
v -50 49 18
v -50 53 18
v -50 56 18
v -50 60 18
v -49 49 18
v -49 53 18
v -49 56 18
v -49 60 18
v -50 49 14
v -50 60 14
v -49 49 14
v -49 60 14
v -50 49 10
v -50 53 10
v -50 56 10
v -50 57 10
v -49 49 10
v -49 53 10
v -49 56 10
v -49 57 10
v -50 57 6
v -50 60 6
v -49 57 6
v -49 60 6
v -50 49 4
v -50 57 4
v -49 49 4
v -49 57 4
v -50 49 -2
v -50 60 -2
v -49 49 -2
v -49 60 -2
v -50 50 26
v -50 51 26
v -50 58 26
v -50 59 26
v -49 50 26
v -49 51 26
v -49 58 26
v -49 59 26
v -50 51 25
v -50 52 25
v -50 57 25
v -50 58 25
v -49 51 25
v -49 52 25
v -49 57 25
v -49 58 25
v -50 52 24
v -50 54 24
v -50 56 24
v -50 57 24
v -49 52 24
v -49 54 24
v -49 56 24
v -49 57 24
v -50 49 19
v -50 53 19
v -50 56 19
v -50 60 19
v -49 49 19
v -49 53 19
v -49 56 19
v -49 60 19
v -50 49 15
v -50 60 15
v -49 49 15
v -49 60 15
v -50 49 11
v -50 53 11
v -50 56 11
v -50 57 11
v -49 49 11
v -49 53 11
v -49 56 11
v -49 57 11
v -50 49 7
v -50 60 7
v -49 49 7
v -49 60 7
v -50 49 1
v -50 57 1
v -49 49 1
v -49 57 1
v -50 57 -1
v -50 60 -1
v -49 57 -1
v -49 60 -1
v -50 52 -5
v -50 53 -5
v -50 56 -5
v -50 57 -5
v -49 52 -5
v -49 53 -5
v -49 56 -5
v -49 57 -5
v -50 53 -7
v -50 56 -7
v -49 53 -7
v -49 56 -7
v -50 49 -8
v -50 52 -8
v -50 57 -8
v -50 60 -8
v -49 49 -8
v -49 52 -8
v -49 57 -8
v -49 60 -8
v -50 49 22
v -49 49 22
v -50 49 19
v -49 49 19
v -50 49 18
v -49 49 18
v -50 49 15
v -49 49 15
v -50 49 14
v -49 49 14
v -50 49 11
v -49 49 11
v -50 49 10
v -49 49 10
v -50 49 7
v -49 49 7
v -50 49 4
v -49 49 4
v -50 49 1
v -49 49 1
v -50 49 -2
v -49 49 -2
v -50 49 -8
v -49 49 -8
v -50 50 31
v -49 50 31
v -50 50 26
v -49 50 26
v -50 51 32
v -49 51 32
v -50 51 31
v -49 51 31
v -50 51 26
v -49 51 26
v -50 51 25
v -49 51 25
v -50 52 33
v -49 52 33
v -50 52 32
v -49 52 32
v -50 52 25
v -49 52 25
v -50 52 24
v -49 52 24
v -50 53 19
v -49 53 19
v -50 53 18
v -49 53 18
v -50 53 11
v -49 53 11
v -50 53 10
v -49 53 10
v -50 53 -5
v -49 53 -5
v -50 53 -7
v -49 53 -7
v -50 57 11
v -49 57 11
v -50 57 10
v -49 57 10
v -50 57 6
v -49 57 6
v -50 57 4
v -49 57 4
v -50 57 1
v -49 57 1
v -50 57 -1
v -49 57 -1
v -50 57 -5
v -49 57 -5
v -50 57 -8
v -49 57 -8
v -50 52 -5
v -49 52 -5
v -50 52 -8
v -49 52 -8
v -50 56 19
v -49 56 19
v -50 56 18
v -49 56 18
v -50 56 11
v -49 56 11
v -50 56 10
v -49 56 10
v -50 56 -5
v -49 56 -5
v -50 56 -7
v -49 56 -7
v -50 57 33
v -49 57 33
v -50 57 32
v -49 57 32
v -50 57 25
v -49 57 25
v -50 57 24
v -49 57 24
v -50 58 32
v -49 58 32
v -50 58 31
v -49 58 31
v -50 58 26
v -49 58 26
v -50 58 25
v -49 58 25
v -50 59 31
v -49 59 31
v -50 59 26
v -49 59 26
v -50 60 22
v -49 60 22
v -50 60 19
v -49 60 19
v -50 60 18
v -49 60 18
v -50 60 15
v -49 60 15
v -50 60 14
v -49 60 14
v -50 60 7
v -49 60 7
v -50 60 6
v -49 60 6
v -50 60 -1
v -49 60 -1
v -50 60 -2
v -49 60 -2
v -50 60 -8
v -49 60 -8

# faces
f 15/5/1 2/5/1 1/5/1
f 16/5/1 2/5/1 15/5/1
f 17/5/1 4/5/1 3/5/1
f 18/5/1 4/5/1 17/5/1
f 19/5/1 6/5/1 5/5/1
f 20/5/1 6/5/1 19/5/1
f 21/5/1 8/5/1 7/5/1
f 22/5/1 8/5/1 21/5/1
f 23/5/1 10/5/1 9/5/1
f 24/5/1 10/5/1 23/5/1
f 25/5/1 12/5/1 11/5/1
f 26/5/1 12/5/1 25/5/1
f 28/3/1 14/3/1 13/3/1
f 29/3/1 14/3/1 28/3/1
f 31/4/1 26/4/1 25/4/1
f 32/5/1 12/5/1 26/5/1
f 32/4/1 26/4/1 31/4/1
f 34/3/1 30/3/1 29/3/1
f 34/3/1 28/3/1 27/3/1
f 34/3/1 29/3/1 28/3/1
f 35/3/1 30/3/1 34/3/1
f 37/5/1 32/5/1 31/5/1
f 38/5/1 12/5/1 32/5/1
f 38/5/1 32/5/1 37/5/1
f 39/3/1 36/3/1 35/3/1
f 39/3/1 34/3/1 33/3/1
f 39/3/1 35/3/1 34/3/1
f 40/3/1 36/3/1 39/3/1
f 41/3/1 36/3/1 40/3/1
f 42/3/1 36/3/1 41/3/1
f 43/5/1 2/5/1 16/5/1
f 44/5/1 17/5/1 3/5/1
f 45/5/1 6/5/1 20/5/1
f 46/5/1 21/5/1 7/5/1
f 47/5/1 37/5/1 31/5/1
f 49/3/1 39/3/1 33/3/1
f 50/5/1 40/5/1 39/5/1
f 50/3/1 39/3/1 49/3/1
f 51/3/1 41/3/1 40/3/1
f 51/5/1 40/5/1 50/5/1
f 52/3/1 41/3/1 51/3/1
f 53/3/1 41/3/1 52/3/1
f 54/5/1 42/5/1 41/5/1
f 54/3/1 41/3/1 53/3/1
f 55/3/1 36/3/1 42/3/1
f 55/5/1 42/5/1 54/5/1
f 56/3/1 36/3/1 55/3/1
f 57/5/1 44/5/1 43/5/1
f 57/4/1 16/4/1 15/4/1
f 57/5/1 43/5/1 16/5/1
f 58/4/1 18/4/1 17/4/1
f 58/5/1 44/5/1 57/5/1
f 58/5/1 17/5/1 44/5/1
f 59/4/1 20/4/1 19/4/1
f 59/5/1 45/5/1 20/5/1
f 59/5/1 46/5/1 45/5/1
f 60/4/1 22/4/1 21/4/1
f 60/5/1 46/5/1 59/5/1
f 60/5/1 21/5/1 46/5/1
f 61/4/1 31/4/1 25/4/1
f 61/5/1 47/5/1 31/5/1
f 61/5/1 48/5/1 47/5/1
f 62/5/1 48/5/1 61/5/1
f 63/2/1 50/2/1 49/2/1
f 64/5/1 52/5/1 51/5/1
f 64/2/1 50/2/1 63/2/1
f 64/5/1 51/5/1 50/5/1
f 65/5/1 52/5/1 64/5/1
f 66/2/1 53/2/1 52/2/1
f 66/5/1 52/5/1 65/5/1
f 67/5/1 54/5/1 53/5/1
f 67/2/1 53/2/1 66/2/1
f 67/5/1 55/5/1 54/5/1
f 68/5/1 55/5/1 67/5/1
f 69/2/1 56/2/1 55/2/1
f 69/5/1 55/5/1 68/5/1
f 70/2/1 56/2/1 69/2/1
f 71/4/1 57/4/1 15/4/1
f 71/4/1 58/4/1 57/4/1
f 72/4/1 18/4/1 58/4/1
f 72/4/1 58/4/1 71/4/1
f 73/4/1 59/4/1 19/4/1
f 73/4/1 60/4/1 59/4/1
f 74/4/1 22/4/1 60/4/1
f 74/4/1 60/4/1 73/4/1
f 75/4/1 62/4/1 61/4/1
f 75/4/1 61/4/1 25/4/1
f 76/5/1 48/5/1 62/5/1
f 76/4/1 62/4/1 75/4/1
f 77/2/1 63/2/1 49/2/1
f 78/5/1 64/5/1 63/5/1
f 78/2/1 63/2/1 77/2/1
f 78/5/1 65/5/1 64/5/1
f 79/2/1 66/2/1 65/2/1
f 79/5/1 65/5/1 78/5/1
f 79/2/1 68/2/1 67/2/1
f 79/2/1 67/2/1 66/2/1
f 80/5/1 69/5/1 68/5/1
f 80/2/1 68/2/1 79/2/1
f 80/5/1 70/5/1 69/5/1
f 81/2/1 56/2/1 70/2/1
f 81/5/1 70/5/1 80/5/1
f 82/2/1 56/2/1 81/2/1
f 83/5/1 72/5/1 71/5/1
f 84/5/1 72/5/1 83/5/1
f 85/5/1 74/5/1 73/5/1
f 86/5/1 74/5/1 85/5/1
f 87/5/1 76/5/1 75/5/1
f 88/5/1 48/5/1 76/5/1
f 88/5/1 76/5/1 87/5/1
f 89/1/1 78/1/1 77/1/1
f 89/1/1 79/1/1 78/1/1
f 89/1/1 80/1/1 79/1/1
f 89/1/1 82/1/1 81/1/1
f 89/1/1 81/1/1 80/1/1
f 90/1/1 82/1/1 89/1/1
f 91/1/1 82/1/1 90/1/1
f 92/1/1 82/1/1 91/1/1
f 93/5/1 85/5/1 73/5/1
f 94/5/1 74/5/1 86/5/1
f 96/5/1 23/5/1 9/5/1
f 97/5/1 10/5/1 24/5/1
f 99/5/1 87/5/1 75/5/1
f 101/1/1 91/1/1 90/1/1
f 102/1/1 91/1/1 101/1/1
f 103/1/1 91/1/1 102/1/1
f 104/1/1 91/1/1 103/1/1
f 105/4/1 73/4/1 19/4/1
f 105/5/1 94/5/1 93/5/1
f 105/5/1 93/5/1 73/5/1
f 106/4/1 22/4/1 74/4/1
f 106/5/1 94/5/1 105/5/1
f 106/5/1 74/5/1 94/5/1
f 107/5/1 96/5/1 95/5/1
f 108/4/1 24/4/1 23/4/1
f 108/5/1 96/5/1 107/5/1
f 108/5/1 23/5/1 96/5/1
f 109/5/1 98/5/1 97/5/1
f 109/4/1 24/4/1 108/4/1
f 109/5/1 97/5/1 24/5/1
f 110/5/1 98/5/1 109/5/1
f 111/5/1 99/5/1 75/5/1
f 111/5/1 100/5/1 99/5/1
f 111/4/1 75/4/1 25/4/1
f 112/5/1 100/5/1 111/5/1
f 113/1/1 103/1/1 102/1/1
f 114/1/1 103/1/1 113/1/1
f 115/5/1 15/5/1 1/5/1
f 115/4/1 71/4/1 15/4/1
f 116/5/1 83/5/1 71/5/1
f 116/4/1 71/4/1 115/4/1
f 117/5/1 72/5/1 84/5/1
f 117/4/1 18/4/1 72/4/1
f 118/5/1 4/5/1 18/5/1
f 118/4/1 18/4/1 117/4/1
f 119/5/1 19/5/1 5/5/1
f 119/4/1 105/4/1 19/4/1
f 119/4/1 106/4/1 105/4/1
f 120/5/1 8/5/1 22/5/1
f 120/4/1 106/4/1 119/4/1
f 120/4/1 22/4/1 106/4/1
f 121/4/1 110/4/1 109/4/1
f 121/4/1 108/4/1 107/4/1
f 121/5/1 107/5/1 95/5/1
f 121/4/1 109/4/1 108/4/1
f 122/5/1 98/5/1 110/5/1
f 122/4/1 110/4/1 121/4/1
f 123/4/1 112/4/1 111/4/1
f 123/5/1 25/5/1 11/5/1
f 123/4/1 111/4/1 25/4/1
f 124/5/1 100/5/1 112/5/1
f 124/4/1 112/4/1 123/4/1
f 125/5/1 115/5/1 1/5/1
f 125/5/1 116/5/1 115/5/1
f 126/5/1 83/5/1 116/5/1
f 126/5/1 116/5/1 125/5/1
f 127/5/1 117/5/1 84/5/1
f 127/5/1 118/5/1 117/5/1
f 128/5/1 4/5/1 118/5/1
f 128/5/1 118/5/1 127/5/1
f 129/5/1 119/5/1 5/5/1
f 129/5/1 120/5/1 119/5/1
f 130/5/1 8/5/1 120/5/1
f 130/5/1 120/5/1 129/5/1
f 131/5/1 121/5/1 95/5/1
f 131/5/1 122/5/1 121/5/1
f 132/5/1 98/5/1 122/5/1
f 132/5/1 122/5/1 131/5/1
f 133/5/1 123/5/1 11/5/1
f 133/5/1 124/5/1 123/5/1
f 134/5/1 100/5/1 124/5/1
f 134/5/1 124/5/1 133/5/1
f 135/5/2 136/5/2 149/5/2
f 149/5/2 136/5/2 150/5/2
f 137/5/2 138/5/2 151/5/2
f 151/5/2 138/5/2 152/5/2
f 139/5/2 140/5/2 153/5/2
f 153/5/2 140/5/2 154/5/2
f 141/5/2 142/5/2 155/5/2
f 155/5/2 142/5/2 156/5/2
f 143/5/2 144/5/2 157/5/2
f 157/5/2 144/5/2 158/5/2
f 145/5/2 146/5/2 159/5/2
f 159/5/2 146/5/2 160/5/2
f 147/3/2 148/3/2 162/3/2
f 162/3/2 148/3/2 163/3/2
f 159/4/2 160/4/2 165/4/2
f 160/5/2 146/5/2 166/5/2
f 165/4/2 160/4/2 166/4/2
f 163/3/2 164/3/2 168/3/2
f 161/3/2 162/3/2 168/3/2
f 162/3/2 163/3/2 168/3/2
f 168/3/2 164/3/2 169/3/2
f 165/5/2 166/5/2 171/5/2
f 166/5/2 146/5/2 172/5/2
f 171/5/2 166/5/2 172/5/2
f 169/3/2 170/3/2 173/3/2
f 167/3/2 168/3/2 173/3/2
f 168/3/2 169/3/2 173/3/2
f 173/3/2 170/3/2 174/3/2
f 174/3/2 170/3/2 175/3/2
f 175/3/2 170/3/2 176/3/2
f 150/5/2 136/5/2 177/5/2
f 137/5/2 151/5/2 178/5/2
f 154/5/2 140/5/2 179/5/2
f 141/5/2 155/5/2 180/5/2
f 165/5/2 171/5/2 181/5/2
f 167/3/2 173/3/2 183/3/2
f 173/5/2 174/5/2 184/5/2
f 183/3/2 173/3/2 184/3/2
f 174/3/2 175/3/2 185/3/2
f 184/5/2 174/5/2 185/5/2
f 185/3/2 175/3/2 186/3/2
f 186/3/2 175/3/2 187/3/2
f 175/5/2 176/5/2 188/5/2
f 187/3/2 175/3/2 188/3/2
f 176/3/2 170/3/2 189/3/2
f 188/5/2 176/5/2 189/5/2
f 189/3/2 170/3/2 190/3/2
f 177/5/2 178/5/2 191/5/2
f 149/4/2 150/4/2 191/4/2
f 150/5/2 177/5/2 191/5/2
f 151/4/2 152/4/2 192/4/2
f 191/5/2 178/5/2 192/5/2
f 178/5/2 151/5/2 192/5/2
f 153/4/2 154/4/2 193/4/2
f 154/5/2 179/5/2 193/5/2
f 179/5/2 180/5/2 193/5/2
f 155/4/2 156/4/2 194/4/2
f 193/5/2 180/5/2 194/5/2
f 180/5/2 155/5/2 194/5/2
f 159/4/2 165/4/2 195/4/2
f 165/5/2 181/5/2 195/5/2
f 181/5/2 182/5/2 195/5/2
f 195/5/2 182/5/2 196/5/2
f 183/2/2 184/2/2 197/2/2
f 185/5/2 186/5/2 198/5/2
f 197/2/2 184/2/2 198/2/2
f 184/5/2 185/5/2 198/5/2
f 198/5/2 186/5/2 199/5/2
f 186/2/2 187/2/2 200/2/2
f 199/5/2 186/5/2 200/5/2
f 187/5/2 188/5/2 201/5/2
f 200/2/2 187/2/2 201/2/2
f 188/5/2 189/5/2 201/5/2
f 201/5/2 189/5/2 202/5/2
f 189/2/2 190/2/2 203/2/2
f 202/5/2 189/5/2 203/5/2
f 203/2/2 190/2/2 204/2/2
f 149/4/2 191/4/2 205/4/2
f 191/4/2 192/4/2 205/4/2
f 192/4/2 152/4/2 206/4/2
f 205/4/2 192/4/2 206/4/2
f 153/4/2 193/4/2 207/4/2
f 193/4/2 194/4/2 207/4/2
f 194/4/2 156/4/2 208/4/2
f 207/4/2 194/4/2 208/4/2
f 195/4/2 196/4/2 209/4/2
f 159/4/2 195/4/2 209/4/2
f 196/5/2 182/5/2 210/5/2
f 209/4/2 196/4/2 210/4/2
f 183/2/2 197/2/2 211/2/2
f 197/5/2 198/5/2 212/5/2
f 211/2/2 197/2/2 212/2/2
f 198/5/2 199/5/2 212/5/2
f 199/2/2 200/2/2 213/2/2
f 212/5/2 199/5/2 213/5/2
f 201/2/2 202/2/2 213/2/2
f 200/2/2 201/2/2 213/2/2
f 202/5/2 203/5/2 214/5/2
f 213/2/2 202/2/2 214/2/2
f 203/5/2 204/5/2 214/5/2
f 204/2/2 190/2/2 215/2/2
f 214/5/2 204/5/2 215/5/2
f 215/2/2 190/2/2 216/2/2
f 205/5/2 206/5/2 217/5/2
f 217/5/2 206/5/2 218/5/2
f 207/5/2 208/5/2 219/5/2
f 219/5/2 208/5/2 220/5/2
f 209/5/2 210/5/2 221/5/2
f 210/5/2 182/5/2 222/5/2
f 221/5/2 210/5/2 222/5/2
f 211/1/2 212/1/2 223/1/2
f 212/1/2 213/1/2 223/1/2
f 213/1/2 214/1/2 223/1/2
f 215/1/2 216/1/2 223/1/2
f 214/1/2 215/1/2 223/1/2
f 223/1/2 216/1/2 224/1/2
f 224/1/2 216/1/2 225/1/2
f 225/1/2 216/1/2 226/1/2
f 207/5/2 219/5/2 227/5/2
f 220/5/2 208/5/2 228/5/2
f 143/5/2 157/5/2 230/5/2
f 158/5/2 144/5/2 231/5/2
f 209/5/2 221/5/2 233/5/2
f 224/1/2 225/1/2 235/1/2
f 235/1/2 225/1/2 236/1/2
f 236/1/2 225/1/2 237/1/2
f 237/1/2 225/1/2 238/1/2
f 153/4/2 207/4/2 239/4/2
f 227/5/2 228/5/2 239/5/2
f 207/5/2 227/5/2 239/5/2
f 208/4/2 156/4/2 240/4/2
f 239/5/2 228/5/2 240/5/2
f 228/5/2 208/5/2 240/5/2
f 229/5/2 230/5/2 241/5/2
f 157/4/2 158/4/2 242/4/2
f 241/5/2 230/5/2 242/5/2
f 230/5/2 157/5/2 242/5/2
f 231/5/2 232/5/2 243/5/2
f 242/4/2 158/4/2 243/4/2
f 158/5/2 231/5/2 243/5/2
f 243/5/2 232/5/2 244/5/2
f 209/5/2 233/5/2 245/5/2
f 233/5/2 234/5/2 245/5/2
f 159/4/2 209/4/2 245/4/2
f 245/5/2 234/5/2 246/5/2
f 236/1/2 237/1/2 247/1/2
f 247/1/2 237/1/2 248/1/2
f 135/5/2 149/5/2 249/5/2
f 149/4/2 205/4/2 249/4/2
f 205/5/2 217/5/2 250/5/2
f 249/4/2 205/4/2 250/4/2
f 218/5/2 206/5/2 251/5/2
f 206/4/2 152/4/2 251/4/2
f 152/5/2 138/5/2 252/5/2
f 251/4/2 152/4/2 252/4/2
f 139/5/2 153/5/2 253/5/2
f 153/4/2 239/4/2 253/4/2
f 239/4/2 240/4/2 253/4/2
f 156/5/2 142/5/2 254/5/2
f 253/4/2 240/4/2 254/4/2
f 240/4/2 156/4/2 254/4/2
f 243/4/2 244/4/2 255/4/2
f 241/4/2 242/4/2 255/4/2
f 229/5/2 241/5/2 255/5/2
f 242/4/2 243/4/2 255/4/2
f 244/5/2 232/5/2 256/5/2
f 255/4/2 244/4/2 256/4/2
f 245/4/2 246/4/2 257/4/2
f 145/5/2 159/5/2 257/5/2
f 159/4/2 245/4/2 257/4/2
f 246/5/2 234/5/2 258/5/2
f 257/4/2 246/4/2 258/4/2
f 135/5/2 249/5/2 259/5/2
f 249/5/2 250/5/2 259/5/2
f 250/5/2 217/5/2 260/5/2
f 259/5/2 250/5/2 260/5/2
f 218/5/2 251/5/2 261/5/2
f 251/5/2 252/5/2 261/5/2
f 252/5/2 138/5/2 262/5/2
f 261/5/2 252/5/2 262/5/2
f 139/5/2 253/5/2 263/5/2
f 253/5/2 254/5/2 263/5/2
f 254/5/2 142/5/2 264/5/2
f 263/5/2 254/5/2 264/5/2
f 229/5/2 255/5/2 265/5/2
f 255/5/2 256/5/2 265/5/2
f 256/5/2 232/5/2 266/5/2
f 265/5/2 256/5/2 266/5/2
f 145/5/2 257/5/2 267/5/2
f 257/5/2 258/5/2 267/5/2
f 258/5/2 234/5/2 268/5/2
f 267/5/2 258/5/2 268/5/2
f 273/3/3 270/3/3 269/3/3
f 274/2/3 271/2/3 270/2/3
f 274/3/3 270/3/3 273/3/3
f 275/1/3 272/1/3 271/1/3
f 275/2/3 271/2/3 274/2/3
f 276/1/3 272/1/3 275/1/3
f 281/3/3 278/3/3 277/3/3
f 282/3/3 278/3/3 281/3/3
f 283/1/3 280/1/3 279/1/3
f 284/1/3 280/1/3 283/1/3
f 289/3/3 286/3/3 285/3/3
f 290/3/3 286/3/3 289/3/3
f 291/1/3 288/1/3 287/1/3
f 292/1/3 288/1/3 291/1/3
f 295/5/3 294/5/3 293/5/3
f 296/5/3 294/5/3 295/5/3
f 301/5/3 298/5/3 297/5/3
f 302/5/3 298/5/3 301/5/3
f 303/5/3 300/5/3 299/5/3
f 304/5/3 300/5/3 303/5/3
f 307/5/3 306/5/3 305/5/3
f 308/5/3 306/5/3 307/5/3
f 313/5/3 310/5/3 309/5/3
f 314/5/3 310/5/3 313/5/3
f 315/5/3 312/5/3 311/5/3
f 316/5/3 312/5/3 315/5/3
f 319/5/3 318/5/3 317/5/3
f 320/5/3 318/5/3 319/5/3
f 323/5/3 322/5/3 321/5/3
f 324/5/3 322/5/3 323/5/3
f 327/5/3 326/5/3 325/5/3
f 328/5/3 326/5/3 327/5/3
f 329/3/4 330/3/4 333/3/4
f 333/3/4 330/3/4 334/3/4
f 331/1/4 332/1/4 335/1/4
f 335/1/4 332/1/4 336/1/4
f 337/3/4 338/3/4 341/3/4
f 341/3/4 338/3/4 342/3/4
f 339/1/4 340/1/4 343/1/4
f 343/1/4 340/1/4 344/1/4
f 345/3/4 346/3/4 349/3/4
f 346/2/4 347/2/4 350/2/4
f 349/3/4 346/3/4 350/3/4
f 347/1/4 348/1/4 351/1/4
f 350/2/4 347/2/4 351/2/4
f 351/1/4 348/1/4 352/1/4
f 353/5/4 354/5/4 357/5/4
f 357/5/4 354/5/4 358/5/4
f 355/5/4 356/5/4 359/5/4
f 359/5/4 356/5/4 360/5/4
f 361/5/4 362/5/4 363/5/4
f 363/5/4 362/5/4 364/5/4
f 365/5/4 366/5/4 369/5/4
f 369/5/4 366/5/4 370/5/4
f 367/5/4 368/5/4 371/5/4
f 371/5/4 368/5/4 372/5/4
f 373/5/4 374/5/4 375/5/4
f 375/5/4 374/5/4 376/5/4
f 377/5/4 378/5/4 379/5/4
f 379/5/4 378/5/4 380/5/4
f 381/5/4 382/5/4 383/5/4
f 383/5/4 382/5/4 384/5/4
f 385/5/4 386/5/4 389/5/4
f 389/5/4 386/5/4 390/5/4
f 387/5/4 388/5/4 391/5/4
f 391/5/4 388/5/4 392/5/4
f 393/5/4 394/5/4 395/5/4
f 395/5/4 394/5/4 396/5/4
f 397/5/4 398/5/4 401/5/4
f 401/5/4 398/5/4 402/5/4
f 399/5/4 400/5/4 403/5/4
f 403/5/4 400/5/4 404/5/4
f 407/5/5 406/5/5 405/5/5
f 408/5/5 406/5/5 407/5/5
f 411/5/5 410/5/5 409/5/5
f 412/5/5 410/5/5 411/5/5
f 415/5/5 414/5/5 413/5/5
f 416/5/5 414/5/5 415/5/5
f 419/5/5 418/5/5 417/5/5
f 420/5/5 418/5/5 419/5/5
f 423/5/5 422/5/5 421/5/5
f 424/5/5 422/5/5 423/5/5
f 427/5/5 426/5/5 425/5/5
f 428/5/5 426/5/5 427/5/5
f 431/3/5 430/3/5 429/3/5
f 432/3/5 430/3/5 431/3/5
f 435/3/5 434/3/5 433/3/5
f 436/3/5 434/3/5 435/3/5
f 439/3/5 438/3/5 437/3/5
f 440/3/5 438/3/5 439/3/5
f 443/3/5 442/3/5 441/3/5
f 444/3/5 442/3/5 443/3/5
f 447/3/5 446/3/5 445/3/5
f 448/3/5 446/3/5 447/3/5
f 451/5/5 450/5/5 449/5/5
f 452/5/5 450/5/5 451/5/5
f 455/5/5 454/5/5 453/5/5
f 456/5/5 454/5/5 455/5/5
f 459/5/5 458/5/5 457/5/5
f 460/5/5 458/5/5 459/5/5
f 463/5/5 462/5/5 461/5/5
f 464/5/5 462/5/5 463/5/5
f 467/5/5 466/5/5 465/5/5
f 468/5/5 466/5/5 467/5/5
f 471/5/5 470/5/5 469/5/5
f 472/5/5 470/5/5 471/5/5
f 475/5/5 474/5/5 473/5/5
f 476/5/5 474/5/5 475/5/5
f 477/5/6 478/5/6 479/5/6
f 479/5/6 478/5/6 480/5/6
f 481/5/6 482/5/6 483/5/6
f 483/5/6 482/5/6 484/5/6
f 485/5/6 486/5/6 487/5/6
f 487/5/6 486/5/6 488/5/6
f 489/5/6 490/5/6 491/5/6
f 491/5/6 490/5/6 492/5/6
f 493/1/6 494/1/6 495/1/6
f 495/1/6 494/1/6 496/1/6
f 497/1/6 498/1/6 499/1/6
f 499/1/6 498/1/6 500/1/6
f 501/1/6 502/1/6 503/1/6
f 503/1/6 502/1/6 504/1/6
f 505/1/6 506/1/6 507/1/6
f 507/1/6 506/1/6 508/1/6
f 509/1/6 510/1/6 511/1/6
f 511/1/6 510/1/6 512/1/6
f 513/5/6 514/5/6 515/5/6
f 515/5/6 514/5/6 516/5/6
f 517/5/6 518/5/6 519/5/6
f 519/5/6 518/5/6 520/5/6
f 521/5/6 522/5/6 523/5/6
f 523/5/6 522/5/6 524/5/6
f 525/5/6 526/5/6 527/5/6
f 527/5/6 526/5/6 528/5/6
f 529/5/6 530/5/6 531/5/6
f 531/5/6 530/5/6 532/5/6
