# MagicaVoxel @ Ephtracy

# group
g cursor

# material
mtllib cursor.mtl
usemtl palette

# normals
vn -1 0 0
vn 1 0 0
vn 0 0 1
vn 0 0 -1
vn 0 -1 0
vn 0 1 0

# texcoords
vt 0.958984 0.5
vt 0.994141 0.5

# verts
v -7 15 2
v -7 15 -0
v -7 35 2
v -7 35 -0
v -1 17 2
v -1 17 -0
v -1 19 2
v -1 19 -0
v 0 15 2
v 0 15 -0
v 0 17 2
v 0 17 -0
v 1 14 2
v 1 14 -0
v 1 15 2
v 1 15 -0
v -6 34 2
v -6 34 -0
v -6 35 2
v -6 35 -0
v -5 15 2
v -5 15 -0
v -5 16 2
v -5 16 -0
v -5 33 2
v -5 33 -0
v -5 34 2
v -5 34 -0
v -4 16 2
v -4 16 -0
v -4 17 2
v -4 17 -0
v -4 32 2
v -4 32 -0
v -4 33 2
v -4 33 -0
v -3 17 2
v -3 17 -0
v -3 18 2
v -3 18 -0
v -3 31 2
v -3 31 -0
v -3 32 2
v -3 32 -0
v -2 18 2
v -2 18 -0
v -2 19 2
v -2 19 -0
v -2 30 2
v -2 30 -0
v -2 31 2
v -2 31 -0
v -1 29 2
v -1 29 -0
v -1 30 2
v -1 30 -0
v 0 28 2
v 0 28 -0
v 0 29 2
v 0 29 -0
v 1 27 2
v 1 27 -0
v 1 28 2
v 1 28 -0
v 2 19 2
v 2 19 -0
v 2 20 2
v 2 20 -0
v 2 26 2
v 2 26 -0
v 2 27 2
v 2 27 -0
v 3 14 2
v 3 14 -0
v 3 15 2
v 3 15 -0
v 3 17 2
v 3 17 -0
v 3 19 2
v 3 19 -0
v 3 25 2
v 3 25 -0
v 3 26 2
v 3 26 -0
v 4 15 2
v 4 15 -0
v 4 17 2
v 4 17 -0
v 4 24 2
v 4 24 -0
v 4 25 2
v 4 25 -0
v 5 23 2
v 5 23 -0
v 5 24 2
v 5 24 -0
v 6 22 2
v 6 22 -0
v 6 23 2
v 6 23 -0
v 7 20 2
v 7 20 -0
v 7 22 2
v 7 22 -0
v -7 15 2
v -7 35 2
v -6 16 2
v -6 33 2
v -6 34 2
v -6 35 2
v -5 15 2
v -5 16 2
v -5 17 2
v -5 32 2
v -5 33 2
v -5 34 2
v -4 16 2
v -4 17 2
v -4 18 2
v -4 31 2
v -4 32 2
v -4 33 2
v -3 17 2
v -3 18 2
v -3 19 2
v -3 30 2
v -3 31 2
v -3 32 2
v -2 18 2
v -2 19 2
v -2 20 2
v -2 29 2
v -2 30 2
v -2 31 2
v -1 17 2
v -1 19 2
v -1 20 2
v -1 28 2
v -1 29 2
v -1 30 2
v 0 15 2
v 0 17 2
v 0 19 2
v 0 27 2
v 0 28 2
v 0 29 2
v 1 14 2
v 1 15 2
v 1 17 2
v 1 19 2
v 1 21 2
v 1 26 2
v 1 27 2
v 1 28 2
v 2 17 2
v 2 19 2
v 2 20 2
v 2 25 2
v 2 26 2
v 2 27 2
v 3 14 2
v 3 15 2
v 3 17 2
v 3 19 2
v 3 24 2
v 3 25 2
v 3 26 2
v 4 15 2
v 4 17 2
v 4 23 2
v 4 24 2
v 4 25 2
v 5 22 2
v 5 23 2
v 5 24 2
v 6 21 2
v 6 22 2
v 6 23 2
v 7 20 2
v 7 22 2
v -7 15 -0
v -7 35 -0
v -6 16 -0
v -6 33 -0
v -6 34 -0
v -6 35 -0
v -5 15 -0
v -5 16 -0
v -5 17 -0
v -5 32 -0
v -5 33 -0
v -5 34 -0
v -4 16 -0
v -4 17 -0
v -4 18 -0
v -4 31 -0
v -4 32 -0
v -4 33 -0
v -3 17 -0
v -3 18 -0
v -3 19 -0
v -3 30 -0
v -3 31 -0
v -3 32 -0
v -2 18 -0
v -2 19 -0
v -2 20 -0
v -2 29 -0
v -2 30 -0
v -2 31 -0
v -1 17 -0
v -1 19 -0
v -1 20 -0
v -1 28 -0
v -1 29 -0
v -1 30 -0
v 0 15 -0
v 0 17 -0
v 0 19 -0
v 0 27 -0
v 0 28 -0
v 0 29 -0
v 1 14 -0
v 1 15 -0
v 1 17 -0
v 1 19 -0
v 1 21 -0
v 1 26 -0
v 1 27 -0
v 1 28 -0
v 2 17 -0
v 2 19 -0
v 2 20 -0
v 2 25 -0
v 2 26 -0
v 2 27 -0
v 3 14 -0
v 3 15 -0
v 3 17 -0
v 3 19 -0
v 3 24 -0
v 3 25 -0
v 3 26 -0
v 4 15 -0
v 4 17 -0
v 4 23 -0
v 4 24 -0
v 4 25 -0
v 5 22 -0
v 5 23 -0
v 5 24 -0
v 6 21 -0
v 6 22 -0
v 6 23 -0
v 7 20 -0
v 7 22 -0
v 1 14 2
v 3 14 2
v 1 14 -0
v 3 14 -0
v -7 15 2
v -5 15 2
v 0 15 2
v 1 15 2
v 3 15 2
v 4 15 2
v -7 15 -0
v -5 15 -0
v 0 15 -0
v 1 15 -0
v 3 15 -0
v 4 15 -0
v -5 16 2
v -4 16 2
v -5 16 -0
v -4 16 -0
v -4 17 2
v -3 17 2
v -1 17 2
v 0 17 2
v -4 17 -0
v -3 17 -0
v -1 17 -0
v 0 17 -0
v -3 18 2
v -2 18 2
v -3 18 -0
v -2 18 -0
v -2 19 2
v -1 19 2
v -2 19 -0
v -1 19 -0
v 2 20 2
v 7 20 2
v 2 20 -0
v 7 20 -0
v 3 17 2
v 4 17 2
v 3 17 -0
v 4 17 -0
v 2 19 2
v 3 19 2
v 2 19 -0
v 3 19 -0
v 6 22 2
v 7 22 2
v 6 22 -0
v 7 22 -0
v 5 23 2
v 6 23 2
v 5 23 -0
v 6 23 -0
v 4 24 2
v 5 24 2
v 4 24 -0
v 5 24 -0
v 3 25 2
v 4 25 2
v 3 25 -0
v 4 25 -0
v 2 26 2
v 3 26 2
v 2 26 -0
v 3 26 -0
v 1 27 2
v 2 27 2
v 1 27 -0
v 2 27 -0
v 0 28 2
v 1 28 2
v 0 28 -0
v 1 28 -0
v -1 29 2
v 0 29 2
v -1 29 -0
v 0 29 -0
v -2 30 2
v -1 30 2
v -2 30 -0
v -1 30 -0
v -3 31 2
v -2 31 2
v -3 31 -0
v -2 31 -0
v -4 32 2
v -3 32 2
v -4 32 -0
v -3 32 -0
v -5 33 2
v -4 33 2
v -5 33 -0
v -4 33 -0
v -6 34 2
v -5 34 2
v -6 34 -0
v -5 34 -0
v -7 35 2
v -6 35 2
v -7 35 -0
v -6 35 -0

# faces
f 3/2/1 2/2/1 1/2/1
f 4/2/1 2/2/1 3/2/1
f 7/2/1 6/2/1 5/2/1
f 8/2/1 6/2/1 7/2/1
f 11/2/1 10/2/1 9/2/1
f 12/2/1 10/2/1 11/2/1
f 15/2/1 14/2/1 13/2/1
f 16/2/1 14/2/1 15/2/1
f 17/2/2 18/2/2 19/2/2
f 19/2/2 18/2/2 20/2/2
f 21/2/2 22/2/2 23/2/2
f 23/2/2 22/2/2 24/2/2
f 25/2/2 26/2/2 27/2/2
f 27/2/2 26/2/2 28/2/2
f 29/2/2 30/2/2 31/2/2
f 31/2/2 30/2/2 32/2/2
f 33/2/2 34/2/2 35/2/2
f 35/2/2 34/2/2 36/2/2
f 37/2/2 38/2/2 39/2/2
f 39/2/2 38/2/2 40/2/2
f 41/2/2 42/2/2 43/2/2
f 43/2/2 42/2/2 44/2/2
f 45/2/2 46/2/2 47/2/2
f 47/2/2 46/2/2 48/2/2
f 49/2/2 50/2/2 51/2/2
f 51/2/2 50/2/2 52/2/2
f 53/2/2 54/2/2 55/2/2
f 55/2/2 54/2/2 56/2/2
f 57/2/2 58/2/2 59/2/2
f 59/2/2 58/2/2 60/2/2
f 61/2/2 62/2/2 63/2/2
f 63/2/2 62/2/2 64/2/2
f 65/2/2 66/2/2 67/2/2
f 67/2/2 66/2/2 68/2/2
f 69/2/2 70/2/2 71/2/2
f 71/2/2 70/2/2 72/2/2
f 73/2/2 74/2/2 75/2/2
f 75/2/2 74/2/2 76/2/2
f 77/2/2 78/2/2 79/2/2
f 79/2/2 78/2/2 80/2/2
f 81/2/2 82/2/2 83/2/2
f 83/2/2 82/2/2 84/2/2
f 85/2/2 86/2/2 87/2/2
f 87/2/2 86/2/2 88/2/2
f 89/2/2 90/2/2 91/2/2
f 91/2/2 90/2/2 92/2/2
f 93/2/2 94/2/2 95/2/2
f 95/2/2 94/2/2 96/2/2
f 97/2/2 98/2/2 99/2/2
f 99/2/2 98/2/2 100/2/2
f 101/2/2 102/2/2 103/2/2
f 103/2/2 102/2/2 104/2/2
f 107/2/3 106/2/3 105/2/3
f 108/2/3 106/2/3 107/2/3
f 109/2/3 106/2/3 108/2/3
f 110/2/3 106/2/3 109/2/3
f 111/2/3 107/2/3 105/2/3
f 112/1/3 108/1/3 107/1/3
f 112/2/3 107/2/3 111/2/3
f 113/1/3 108/1/3 112/1/3
f 114/1/3 108/1/3 113/1/3
f 115/2/3 109/2/3 108/2/3
f 115/1/3 108/1/3 114/1/3
f 116/2/3 109/2/3 115/2/3
f 117/2/3 113/2/3 112/2/3
f 118/1/3 114/1/3 113/1/3
f 118/2/3 113/2/3 117/2/3
f 119/1/3 114/1/3 118/1/3
f 120/1/3 114/1/3 119/1/3
f 121/2/3 115/2/3 114/2/3
f 121/1/3 114/1/3 120/1/3
f 122/2/3 115/2/3 121/2/3
f 123/2/3 119/2/3 118/2/3
f 124/1/3 120/1/3 119/1/3
f 124/2/3 119/2/3 123/2/3
f 125/1/3 120/1/3 124/1/3
f 126/1/3 120/1/3 125/1/3
f 127/2/3 121/2/3 120/2/3
f 127/1/3 120/1/3 126/1/3
f 128/2/3 121/2/3 127/2/3
f 129/2/3 125/2/3 124/2/3
f 130/1/3 126/1/3 125/1/3
f 130/2/3 125/2/3 129/2/3
f 131/1/3 126/1/3 130/1/3
f 132/1/3 126/1/3 131/1/3
f 133/2/3 127/2/3 126/2/3
f 133/1/3 126/1/3 132/1/3
f 134/2/3 127/2/3 133/2/3
f 136/2/3 131/2/3 130/2/3
f 137/1/3 132/1/3 131/1/3
f 137/2/3 131/2/3 136/2/3
f 138/1/3 132/1/3 137/1/3
f 139/2/3 133/2/3 132/2/3
f 139/1/3 132/1/3 138/1/3
f 140/2/3 133/2/3 139/2/3
f 142/2/3 136/2/3 135/2/3
f 143/1/3 138/1/3 137/1/3
f 143/1/3 137/1/3 136/1/3
f 143/2/3 136/2/3 142/2/3
f 144/1/3 138/1/3 143/1/3
f 145/2/3 139/2/3 138/2/3
f 145/1/3 138/1/3 144/1/3
f 146/2/3 139/2/3 145/2/3
f 148/2/3 142/2/3 141/2/3
f 149/1/3 144/1/3 143/1/3
f 149/1/3 143/1/3 142/1/3
f 149/2/3 142/2/3 148/2/3
f 150/1/3 144/1/3 149/1/3
f 151/1/3 144/1/3 150/1/3
f 152/1/3 144/1/3 151/1/3
f 153/2/3 145/2/3 144/2/3
f 153/1/3 144/1/3 152/1/3
f 154/2/3 145/2/3 153/2/3
f 155/1/3 149/1/3 148/1/3
f 155/1/3 150/1/3 149/1/3
f 156/2/3 151/2/3 150/2/3
f 156/1/3 150/1/3 155/1/3
f 157/2/3 151/2/3 156/2/3
f 158/1/3 152/1/3 151/1/3
f 159/2/3 153/2/3 152/2/3
f 159/1/3 152/1/3 158/1/3
f 160/2/3 153/2/3 159/2/3
f 161/2/3 148/2/3 147/2/3
f 162/1/3 155/1/3 148/1/3
f 162/2/3 148/2/3 161/2/3
f 163/2/3 156/2/3 155/2/3
f 163/1/3 155/1/3 162/1/3
f 164/2/3 156/2/3 163/2/3
f 165/1/3 158/1/3 151/1/3
f 166/2/3 159/2/3 158/2/3
f 166/1/3 158/1/3 165/1/3
f 167/2/3 159/2/3 166/2/3
f 168/2/3 163/2/3 162/2/3
f 169/2/3 163/2/3 168/2/3
f 170/1/3 165/1/3 151/1/3
f 171/2/3 166/2/3 165/2/3
f 171/1/3 165/1/3 170/1/3
f 172/2/3 166/2/3 171/2/3
f 173/1/3 170/1/3 151/1/3
f 174/2/3 171/2/3 170/2/3
f 174/1/3 170/1/3 173/1/3
f 175/2/3 171/2/3 174/2/3
f 176/2/3 151/2/3 157/2/3
f 176/1/3 173/1/3 151/1/3
f 177/2/3 174/2/3 173/2/3
f 177/1/3 173/1/3 176/1/3
f 178/2/3 174/2/3 177/2/3
f 179/2/3 176/2/3 157/2/3
f 179/2/3 177/2/3 176/2/3
f 180/2/3 177/2/3 179/2/3
f 181/2/4 182/2/4 183/2/4
f 183/2/4 182/2/4 184/2/4
f 184/2/4 182/2/4 185/2/4
f 185/2/4 182/2/4 186/2/4
f 181/2/4 183/2/4 187/2/4
f 183/1/4 184/1/4 188/1/4
f 187/2/4 183/2/4 188/2/4
f 188/1/4 184/1/4 189/1/4
f 189/1/4 184/1/4 190/1/4
f 184/2/4 185/2/4 191/2/4
f 190/1/4 184/1/4 191/1/4
f 191/2/4 185/2/4 192/2/4
f 188/2/4 189/2/4 193/2/4
f 189/1/4 190/1/4 194/1/4
f 193/2/4 189/2/4 194/2/4
f 194/1/4 190/1/4 195/1/4
f 195/1/4 190/1/4 196/1/4
f 190/2/4 191/2/4 197/2/4
f 196/1/4 190/1/4 197/1/4
f 197/2/4 191/2/4 198/2/4
f 194/2/4 195/2/4 199/2/4
f 195/1/4 196/1/4 200/1/4
f 199/2/4 195/2/4 200/2/4
f 200/1/4 196/1/4 201/1/4
f 201/1/4 196/1/4 202/1/4
f 196/2/4 197/2/4 203/2/4
f 202/1/4 196/1/4 203/1/4
f 203/2/4 197/2/4 204/2/4
f 200/2/4 201/2/4 205/2/4
f 201/1/4 202/1/4 206/1/4
f 205/2/4 201/2/4 206/2/4
f 206/1/4 202/1/4 207/1/4
f 207/1/4 202/1/4 208/1/4
f 202/2/4 203/2/4 209/2/4
f 208/1/4 202/1/4 209/1/4
f 209/2/4 203/2/4 210/2/4
f 206/2/4 207/2/4 212/2/4
f 207/1/4 208/1/4 213/1/4
f 212/2/4 207/2/4 213/2/4
f 213/1/4 208/1/4 214/1/4
f 208/2/4 209/2/4 215/2/4
f 214/1/4 208/1/4 215/1/4
f 215/2/4 209/2/4 216/2/4
f 211/2/4 212/2/4 218/2/4
f 213/1/4 214/1/4 219/1/4
f 212/1/4 213/1/4 219/1/4
f 218/2/4 212/2/4 219/2/4
f 219/1/4 214/1/4 220/1/4
f 214/2/4 215/2/4 221/2/4
f 220/1/4 214/1/4 221/1/4
f 221/2/4 215/2/4 222/2/4
f 217/2/4 218/2/4 224/2/4
f 219/1/4 220/1/4 225/1/4
f 218/1/4 219/1/4 225/1/4
f 224/2/4 218/2/4 225/2/4
f 225/1/4 220/1/4 226/1/4
f 226/1/4 220/1/4 227/1/4
f 227/1/4 220/1/4 228/1/4
f 220/2/4 221/2/4 229/2/4
f 228/1/4 220/1/4 229/1/4
f 229/2/4 221/2/4 230/2/4
f 224/1/4 225/1/4 231/1/4
f 225/1/4 226/1/4 231/1/4
f 226/2/4 227/2/4 232/2/4
f 231/1/4 226/1/4 232/1/4
f 232/2/4 227/2/4 233/2/4
f 227/1/4 228/1/4 234/1/4
f 228/2/4 229/2/4 235/2/4
f 234/1/4 228/1/4 235/1/4
f 235/2/4 229/2/4 236/2/4
f 223/2/4 224/2/4 237/2/4
f 224/1/4 231/1/4 238/1/4
f 237/2/4 224/2/4 238/2/4
f 231/2/4 232/2/4 239/2/4
f 238/1/4 231/1/4 239/1/4
f 239/2/4 232/2/4 240/2/4
f 227/1/4 234/1/4 241/1/4
f 234/2/4 235/2/4 242/2/4
f 241/1/4 234/1/4 242/1/4
f 242/2/4 235/2/4 243/2/4
f 238/2/4 239/2/4 244/2/4
f 244/2/4 239/2/4 245/2/4
f 227/1/4 241/1/4 246/1/4
f 241/2/4 242/2/4 247/2/4
f 246/1/4 241/1/4 247/1/4
f 247/2/4 242/2/4 248/2/4
f 227/1/4 246/1/4 249/1/4
f 246/2/4 247/2/4 250/2/4
f 249/1/4 246/1/4 250/1/4
f 250/2/4 247/2/4 251/2/4
f 233/2/4 227/2/4 252/2/4
f 227/1/4 249/1/4 252/1/4
f 249/2/4 250/2/4 253/2/4
f 252/1/4 249/1/4 253/1/4
f 253/2/4 250/2/4 254/2/4
f 233/2/4 252/2/4 255/2/4
f 252/2/4 253/2/4 255/2/4
f 255/2/4 253/2/4 256/2/4
f 259/2/5 258/2/5 257/2/5
f 260/2/5 258/2/5 259/2/5
f 267/2/5 262/2/5 261/2/5
f 268/2/5 262/2/5 267/2/5
f 269/2/5 264/2/5 263/2/5
f 270/2/5 264/2/5 269/2/5
f 271/2/5 266/2/5 265/2/5
f 272/2/5 266/2/5 271/2/5
f 275/2/5 274/2/5 273/2/5
f 276/2/5 274/2/5 275/2/5
f 281/2/5 278/2/5 277/2/5
f 282/2/5 278/2/5 281/2/5
f 283/2/5 280/2/5 279/2/5
f 284/2/5 280/2/5 283/2/5
f 287/2/5 286/2/5 285/2/5
f 288/2/5 286/2/5 287/2/5
f 291/2/5 290/2/5 289/2/5
f 292/2/5 290/2/5 291/2/5
f 295/2/5 294/2/5 293/2/5
f 296/2/5 294/2/5 295/2/5
f 297/2/6 298/2/6 299/2/6
f 299/2/6 298/2/6 300/2/6
f 301/2/6 302/2/6 303/2/6
f 303/2/6 302/2/6 304/2/6
f 305/2/6 306/2/6 307/2/6
f 307/2/6 306/2/6 308/2/6
f 309/2/6 310/2/6 311/2/6
f 311/2/6 310/2/6 312/2/6
f 313/2/6 314/2/6 315/2/6
f 315/2/6 314/2/6 316/2/6
f 317/2/6 318/2/6 319/2/6
f 319/2/6 318/2/6 320/2/6
f 321/2/6 322/2/6 323/2/6
f 323/2/6 322/2/6 324/2/6
f 325/2/6 326/2/6 327/2/6
f 327/2/6 326/2/6 328/2/6
f 329/2/6 330/2/6 331/2/6
f 331/2/6 330/2/6 332/2/6
f 333/2/6 334/2/6 335/2/6
f 335/2/6 334/2/6 336/2/6
f 337/2/6 338/2/6 339/2/6
f 339/2/6 338/2/6 340/2/6
f 341/2/6 342/2/6 343/2/6
f 343/2/6 342/2/6 344/2/6
f 345/2/6 346/2/6 347/2/6
f 347/2/6 346/2/6 348/2/6
f 349/2/6 350/2/6 351/2/6
f 351/2/6 350/2/6 352/2/6
f 353/2/6 354/2/6 355/2/6
f 355/2/6 354/2/6 356/2/6
f 357/2/6 358/2/6 359/2/6
f 359/2/6 358/2/6 360/2/6
